<svg width="131" height="30" viewBox="0 0 131 30" fill="none" xmlns="http://www.w3.org/2000/svg">
<path d="M36.4375 4.58838V22.6001H33.0625V4.58838H36.4375ZM44.4297 9.92041L38.9219 16.2017L35.9688 19.1899L34.7383 16.7524L37.082 13.7759L40.375 9.92041H44.4297ZM40.9258 22.6001L37.1758 16.7407L39.5078 14.7017L44.8164 22.6001H40.9258ZM45.3438 16.3892V16.1431C45.3438 15.2134 45.4766 14.3579 45.7422 13.5767C46.0078 12.7876 46.3945 12.104 46.9023 11.5259C47.4102 10.9478 48.0352 10.4985 48.7773 10.1782C49.5195 9.8501 50.3711 9.68604 51.332 9.68604C52.293 9.68604 53.1484 9.8501 53.8984 10.1782C54.6484 10.4985 55.2773 10.9478 55.7852 11.5259C56.3008 12.104 56.6914 12.7876 56.957 13.5767C57.2227 14.3579 57.3555 15.2134 57.3555 16.1431V16.3892C57.3555 17.311 57.2227 18.1665 56.957 18.9556C56.6914 19.7368 56.3008 20.4204 55.7852 21.0063C55.2773 21.5845 54.6523 22.0337 53.9102 22.354C53.168 22.6743 52.3164 22.8345 51.3555 22.8345C50.3945 22.8345 49.5391 22.6743 48.7891 22.354C48.0469 22.0337 47.418 21.5845 46.9023 21.0063C46.3945 20.4204 46.0078 19.7368 45.7422 18.9556C45.4766 18.1665 45.3438 17.311 45.3438 16.3892ZM48.7188 16.1431V16.3892C48.7188 16.9204 48.7656 17.4165 48.8594 17.8774C48.9531 18.3384 49.1016 18.7446 49.3047 19.0962C49.5156 19.4399 49.7891 19.7095 50.125 19.9048C50.4609 20.1001 50.8711 20.1978 51.3555 20.1978C51.8242 20.1978 52.2266 20.1001 52.5625 19.9048C52.8984 19.7095 53.168 19.4399 53.3711 19.0962C53.5742 18.7446 53.7227 18.3384 53.8164 17.8774C53.918 17.4165 53.9688 16.9204 53.9688 16.3892V16.1431C53.9688 15.6274 53.918 15.1431 53.8164 14.6899C53.7227 14.229 53.5703 13.8228 53.3594 13.4712C53.1562 13.1118 52.8867 12.8306 52.5508 12.6274C52.2148 12.4243 51.8086 12.3228 51.332 12.3228C50.8555 12.3228 50.4492 12.4243 50.1133 12.6274C49.7852 12.8306 49.5156 13.1118 49.3047 13.4712C49.1016 13.8228 48.9531 14.229 48.8594 14.6899C48.7656 15.1431 48.7188 15.6274 48.7188 16.1431ZM62.7344 12.6274V22.6001H59.3594V9.92041H62.5234L62.7344 12.6274ZM62.2422 15.8149H61.3281C61.3281 14.8774 61.4492 14.0337 61.6914 13.2837C61.9336 12.5259 62.2734 11.8813 62.7109 11.3501C63.1484 10.811 63.668 10.4009 64.2695 10.1196C64.8789 9.83057 65.5586 9.68604 66.3086 9.68604C66.9023 9.68604 67.4453 9.77197 67.9375 9.94385C68.4297 10.1157 68.8516 10.3892 69.2031 10.7642C69.5625 11.1392 69.8359 11.6353 70.0234 12.2524C70.2188 12.8696 70.3164 13.6235 70.3164 14.5142V22.6001H66.918V14.5024C66.918 13.9399 66.8398 13.5024 66.6836 13.1899C66.5273 12.8774 66.2969 12.6587 65.9922 12.5337C65.6953 12.4009 65.3281 12.3345 64.8906 12.3345C64.4375 12.3345 64.043 12.4243 63.707 12.604C63.3789 12.7837 63.1055 13.0337 62.8867 13.354C62.6758 13.6665 62.5156 14.0337 62.4062 14.4556C62.2969 14.8774 62.2422 15.3306 62.2422 15.8149ZM79.0938 9.92041V12.311H71.7109V9.92041H79.0938ZM73.5391 6.7915H76.9141V18.7798C76.9141 19.147 76.9609 19.4282 77.0547 19.6235C77.1562 19.8188 77.3047 19.9556 77.5 20.0337C77.6953 20.104 77.9414 20.1392 78.2383 20.1392C78.4492 20.1392 78.6367 20.1313 78.8008 20.1157C78.9727 20.0923 79.1172 20.0688 79.2344 20.0454L79.2461 22.5298C78.957 22.6235 78.6445 22.6978 78.3086 22.7524C77.9727 22.8071 77.6016 22.8345 77.1953 22.8345C76.4531 22.8345 75.8047 22.7134 75.25 22.4712C74.7031 22.2212 74.2812 21.8228 73.9844 21.2759C73.6875 20.729 73.5391 20.0103 73.5391 19.1196V6.7915ZM84.3906 12.686V22.6001H81.0156V9.92041H84.1914L84.3906 12.686ZM88.2109 9.83838L88.1523 12.9673C87.9883 12.9438 87.7891 12.9243 87.5547 12.9087C87.3281 12.8853 87.1211 12.8735 86.9336 12.8735C86.457 12.8735 86.043 12.936 85.6914 13.061C85.3477 13.1782 85.0586 13.354 84.8242 13.5884C84.5977 13.8228 84.4258 14.1079 84.3086 14.4438C84.1992 14.7798 84.1367 15.1626 84.1211 15.5923L83.4414 15.3813C83.4414 14.561 83.5234 13.8071 83.6875 13.1196C83.8516 12.4243 84.0898 11.8188 84.4023 11.3032C84.7227 10.7876 85.1133 10.3892 85.5742 10.1079C86.0352 9.82666 86.5625 9.68604 87.1562 9.68604C87.3438 9.68604 87.5352 9.70166 87.7305 9.73291C87.9258 9.75635 88.0859 9.7915 88.2109 9.83838ZM96.25 19.7407V14.0923C96.25 13.686 96.1836 13.3384 96.0508 13.0493C95.918 12.7524 95.7109 12.522 95.4297 12.3579C95.1562 12.1938 94.8008 12.1118 94.3633 12.1118C93.9883 12.1118 93.6641 12.1782 93.3906 12.311C93.1172 12.436 92.9062 12.6196 92.7578 12.8618C92.6094 13.0962 92.5352 13.3735 92.5352 13.6938H89.1602C89.1602 13.1548 89.2852 12.6431 89.5352 12.1587C89.7852 11.6743 90.1484 11.2485 90.625 10.8813C91.1016 10.5063 91.668 10.2134 92.3242 10.0024C92.9883 9.7915 93.7305 9.68604 94.5508 9.68604C95.5352 9.68604 96.4102 9.8501 97.1758 10.1782C97.9414 10.5063 98.543 10.9985 98.9805 11.6548C99.4258 12.311 99.6484 13.1313 99.6484 14.1157V19.5415C99.6484 20.2368 99.6914 20.8071 99.7773 21.2524C99.8633 21.6899 99.9883 22.0728 100.152 22.4009V22.6001H96.7422C96.5781 22.2563 96.4531 21.8267 96.3672 21.311C96.2891 20.7876 96.25 20.2642 96.25 19.7407ZM96.6953 14.8774L96.7188 16.7876H94.832C94.3867 16.7876 94 16.8384 93.6719 16.9399C93.3438 17.0415 93.0742 17.186 92.8633 17.3735C92.6523 17.5532 92.4961 17.7642 92.3945 18.0063C92.3008 18.2485 92.2539 18.5142 92.2539 18.8032C92.2539 19.0923 92.3203 19.354 92.4531 19.5884C92.5859 19.8149 92.7773 19.9946 93.0273 20.1274C93.2773 20.2524 93.5703 20.3149 93.9062 20.3149C94.4141 20.3149 94.8555 20.2134 95.2305 20.0103C95.6055 19.8071 95.8945 19.5571 96.0977 19.2603C96.3086 18.9634 96.418 18.6821 96.4258 18.4165L97.3164 19.8462C97.1914 20.1665 97.0195 20.4985 96.8008 20.8423C96.5898 21.186 96.3203 21.5103 95.9922 21.8149C95.6641 22.1118 95.2695 22.3579 94.8086 22.5532C94.3477 22.7407 93.8008 22.8345 93.168 22.8345C92.3633 22.8345 91.6328 22.6743 90.9766 22.354C90.3281 22.0259 89.8125 21.5767 89.4297 21.0063C89.0547 20.4282 88.8672 19.772 88.8672 19.0376C88.8672 18.3735 88.9922 17.7837 89.2422 17.2681C89.4922 16.7524 89.8594 16.3188 90.3438 15.9673C90.8359 15.6079 91.4492 15.3384 92.1836 15.1587C92.918 14.9712 93.7695 14.8774 94.7383 14.8774H96.6953ZM109.105 19.0962C109.105 18.854 109.035 18.6353 108.895 18.4399C108.754 18.2446 108.492 18.0649 108.109 17.9009C107.734 17.729 107.191 17.5728 106.48 17.4321C105.84 17.2915 105.242 17.1157 104.688 16.9048C104.141 16.686 103.664 16.4243 103.258 16.1196C102.859 15.8149 102.547 15.4556 102.32 15.0415C102.094 14.6196 101.98 14.1392 101.98 13.6001C101.98 13.0688 102.094 12.5688 102.32 12.1001C102.555 11.6313 102.887 11.2173 103.316 10.8579C103.754 10.4907 104.285 10.2056 104.91 10.0024C105.543 9.7915 106.254 9.68604 107.043 9.68604C108.145 9.68604 109.09 9.86182 109.879 10.2134C110.676 10.5649 111.285 11.0493 111.707 11.6665C112.137 12.2759 112.352 12.9712 112.352 13.7524H108.977C108.977 13.4243 108.906 13.1313 108.766 12.8735C108.633 12.6079 108.422 12.4009 108.133 12.2524C107.852 12.0962 107.484 12.0181 107.031 12.0181C106.656 12.0181 106.332 12.0845 106.059 12.2173C105.785 12.3423 105.574 12.5142 105.426 12.7329C105.285 12.9438 105.215 13.1782 105.215 13.436C105.215 13.6313 105.254 13.8071 105.332 13.9634C105.418 14.1118 105.555 14.2485 105.742 14.3735C105.93 14.4985 106.172 14.6157 106.469 14.7251C106.773 14.8267 107.148 14.9204 107.594 15.0063C108.508 15.1938 109.324 15.4399 110.043 15.7446C110.762 16.0415 111.332 16.4478 111.754 16.9634C112.176 17.4712 112.387 18.1392 112.387 18.9673C112.387 19.5298 112.262 20.0454 112.012 20.5142C111.762 20.9829 111.402 21.3931 110.934 21.7446C110.465 22.0884 109.902 22.3579 109.246 22.5532C108.598 22.7407 107.867 22.8345 107.055 22.8345C105.875 22.8345 104.875 22.6235 104.055 22.2017C103.242 21.7798 102.625 21.2446 102.203 20.5962C101.789 19.9399 101.582 19.2681 101.582 18.5806H104.781C104.797 19.0415 104.914 19.4126 105.133 19.6938C105.359 19.9751 105.645 20.1782 105.988 20.3032C106.34 20.4282 106.719 20.4907 107.125 20.4907C107.562 20.4907 107.926 20.4321 108.215 20.3149C108.504 20.1899 108.723 20.0259 108.871 19.8228C109.027 19.6118 109.105 19.3696 109.105 19.0962ZM120.789 9.92041V12.311H113.406V9.92041H120.789ZM115.234 6.7915H118.609V18.7798C118.609 19.147 118.656 19.4282 118.75 19.6235C118.852 19.8188 119 19.9556 119.195 20.0337C119.391 20.104 119.637 20.1392 119.934 20.1392C120.145 20.1392 120.332 20.1313 120.496 20.1157C120.668 20.0923 120.812 20.0688 120.93 20.0454L120.941 22.5298C120.652 22.6235 120.34 22.6978 120.004 22.7524C119.668 22.8071 119.297 22.8345 118.891 22.8345C118.148 22.8345 117.5 22.7134 116.945 22.4712C116.398 22.2212 115.977 21.8228 115.68 21.2759C115.383 20.729 115.234 20.0103 115.234 19.1196V6.7915ZM126.086 12.686V22.6001H122.711V9.92041H125.887L126.086 12.686ZM129.906 9.83838L129.848 12.9673C129.684 12.9438 129.484 12.9243 129.25 12.9087C129.023 12.8853 128.816 12.8735 128.629 12.8735C128.152 12.8735 127.738 12.936 127.387 13.061C127.043 13.1782 126.754 13.354 126.52 13.5884C126.293 13.8228 126.121 14.1079 126.004 14.4438C125.895 14.7798 125.832 15.1626 125.816 15.5923L125.137 15.3813C125.137 14.561 125.219 13.8071 125.383 13.1196C125.547 12.4243 125.785 11.8188 126.098 11.3032C126.418 10.7876 126.809 10.3892 127.27 10.1079C127.73 9.82666 128.258 9.68604 128.852 9.68604C129.039 9.68604 129.23 9.70166 129.426 9.73291C129.621 9.75635 129.781 9.7915 129.906 9.83838Z" fill="white"/>
<path d="M13.4 4.25V0H0V29.2H13.4V24.95C10.655 24.95 8.0224 23.8595 6.08144 21.9185C4.14044 19.9775 3.05 17.345 3.05 14.6C3.05 11.855 4.14044 9.22241 6.08144 7.28145C8.0224 5.34045 10.655 4.25 13.4 4.25Z" fill="white"/>
<path d="M13.4004 4.25V24.95C16.1454 24.95 18.778 23.8595 20.719 21.9185C22.66 19.9775 23.7504 17.345 23.7504 14.6C23.7504 11.855 22.66 9.22241 20.719 7.28145C18.778 5.34045 16.1454 4.25 13.4004 4.25Z" fill="white"/>
</svg>
