<svg width="174" height="32" viewBox="0 0 174 32" fill="none" xmlns="http://www.w3.org/2000/svg">
<path d="M48.666 19.0811C48.666 18.7764 48.6191 18.5029 48.5254 18.2607C48.4395 18.0107 48.2754 17.7842 48.0332 17.5811C47.791 17.3701 47.4512 17.1631 47.0137 16.96C46.5762 16.7568 46.0098 16.5459 45.3145 16.3271C44.541 16.0771 43.8066 15.7959 43.1113 15.4834C42.4238 15.1709 41.8145 14.8076 41.2832 14.3936C40.7598 13.9717 40.3457 13.4834 40.041 12.9287C39.7441 12.374 39.5957 11.7295 39.5957 10.9951C39.5957 10.2842 39.752 9.63965 40.0645 9.06152C40.377 8.47559 40.8145 7.97559 41.377 7.56152C41.9395 7.13965 42.6035 6.81543 43.3691 6.58887C44.1426 6.3623 44.9902 6.24902 45.9121 6.24902C47.1699 6.24902 48.2676 6.47559 49.2051 6.92871C50.1426 7.38184 50.8691 8.00293 51.3848 8.79199C51.9082 9.58105 52.1699 10.4834 52.1699 11.499H48.6777C48.6777 10.999 48.5723 10.5615 48.3613 10.1865C48.1582 9.80371 47.8457 9.50293 47.4238 9.28418C47.0098 9.06543 46.4863 8.95605 45.8535 8.95605C45.2441 8.95605 44.7363 9.0498 44.3301 9.2373C43.9238 9.41699 43.6191 9.66309 43.416 9.97559C43.2129 10.2803 43.1113 10.624 43.1113 11.0068C43.1113 11.2959 43.1816 11.5576 43.3223 11.792C43.4707 12.0264 43.6895 12.2451 43.9785 12.4482C44.2676 12.6514 44.623 12.8428 45.0449 13.0225C45.4668 13.2021 45.9551 13.3779 46.5098 13.5498C47.4395 13.8311 48.2559 14.1475 48.959 14.499C49.6699 14.8506 50.2637 15.2451 50.7402 15.6826C51.2168 16.1201 51.5762 16.6162 51.8184 17.1709C52.0605 17.7256 52.1816 18.3545 52.1816 19.0576C52.1816 19.7998 52.0371 20.4639 51.748 21.0498C51.459 21.6357 51.041 22.1318 50.4941 22.5381C49.9473 22.9443 49.2949 23.2529 48.5371 23.4639C47.7793 23.6748 46.9316 23.7803 45.9941 23.7803C45.1504 23.7803 44.3184 23.6709 43.498 23.4521C42.6777 23.2256 41.9316 22.8857 41.2598 22.4326C40.5957 21.9795 40.0645 21.4014 39.666 20.6982C39.2676 19.9951 39.0684 19.1631 39.0684 18.2021H42.5957C42.5957 18.7334 42.6777 19.1826 42.8418 19.5498C43.0059 19.917 43.2363 20.2139 43.5332 20.4404C43.8379 20.667 44.1973 20.8311 44.6113 20.9326C45.0332 21.0342 45.4941 21.085 45.9941 21.085C46.6035 21.085 47.1035 20.999 47.4941 20.8271C47.8926 20.6553 48.1855 20.417 48.373 20.1123C48.5684 19.8076 48.666 19.4639 48.666 19.0811ZM57.7363 13.4912V23.5459H54.3496V10.8662H57.5254L57.7363 13.4912ZM57.2676 16.7607H56.3301C56.3301 15.8779 56.4355 15.0654 56.6465 14.3232C56.8652 13.5732 57.1816 12.9248 57.5957 12.3779C58.0176 11.8232 58.5371 11.3936 59.1543 11.0889C59.7715 10.7842 60.4863 10.6318 61.2988 10.6318C61.8613 10.6318 62.377 10.7178 62.8457 10.8896C63.3145 11.0537 63.7168 11.3154 64.0527 11.6748C64.3965 12.0264 64.6621 12.4873 64.8496 13.0576C65.0371 13.6201 65.1309 14.2959 65.1309 15.085V23.5459H61.7559V15.46C61.7559 14.8818 61.6777 14.4365 61.5215 14.124C61.3652 13.8115 61.1426 13.5928 60.8535 13.4678C60.5723 13.3428 60.2324 13.2803 59.834 13.2803C59.3965 13.2803 59.0137 13.3701 58.6855 13.5498C58.3652 13.7295 58.0996 13.9795 57.8887 14.2998C57.6777 14.6123 57.5215 14.9795 57.4199 15.4014C57.3184 15.8232 57.2676 16.2764 57.2676 16.7607ZM64.8145 16.374L63.6074 16.5264C63.6074 15.6982 63.709 14.9287 63.9121 14.2178C64.123 13.5068 64.4316 12.8818 64.8379 12.3428C65.252 11.8037 65.7637 11.3857 66.373 11.0889C66.9824 10.7842 67.6855 10.6318 68.4824 10.6318C69.0918 10.6318 69.6465 10.7217 70.1465 10.9014C70.6465 11.0732 71.0723 11.3506 71.4238 11.7334C71.7832 12.1084 72.0566 12.6006 72.2441 13.21C72.4395 13.8193 72.5371 14.5654 72.5371 15.4482V23.5459H69.1504V15.4482C69.1504 14.8623 69.0723 14.417 68.916 14.1123C68.7676 13.7998 68.5488 13.585 68.2598 13.4678C67.9785 13.3428 67.6426 13.2803 67.252 13.2803C66.8457 13.2803 66.4902 13.3623 66.1855 13.5264C65.8809 13.6826 65.627 13.9014 65.4238 14.1826C65.2207 14.4639 65.0684 14.792 64.9668 15.167C64.8652 15.5342 64.8145 15.9365 64.8145 16.374ZM81.9941 20.6865V15.0381C81.9941 14.6318 81.9277 14.2842 81.7949 13.9951C81.6621 13.6982 81.4551 13.4678 81.1738 13.3037C80.9004 13.1396 80.5449 13.0576 80.1074 13.0576C79.7324 13.0576 79.4082 13.124 79.1348 13.2568C78.8613 13.3818 78.6504 13.5654 78.502 13.8076C78.3535 14.042 78.2793 14.3193 78.2793 14.6396H74.9043C74.9043 14.1006 75.0293 13.5889 75.2793 13.1045C75.5293 12.6201 75.8926 12.1943 76.3691 11.8271C76.8457 11.4521 77.4121 11.1592 78.0684 10.9482C78.7324 10.7373 79.4746 10.6318 80.2949 10.6318C81.2793 10.6318 82.1543 10.7959 82.9199 11.124C83.6855 11.4521 84.2871 11.9443 84.7246 12.6006C85.1699 13.2568 85.3926 14.0771 85.3926 15.0615V20.4873C85.3926 21.1826 85.4355 21.7529 85.5215 22.1982C85.6074 22.6357 85.7324 23.0186 85.8965 23.3467V23.5459H82.4863C82.3223 23.2021 82.1973 22.7725 82.1113 22.2568C82.0332 21.7334 81.9941 21.21 81.9941 20.6865ZM82.4395 15.8232L82.4629 17.7334H80.5762C80.1309 17.7334 79.7441 17.7842 79.416 17.8857C79.0879 17.9873 78.8184 18.1318 78.6074 18.3193C78.3965 18.499 78.2402 18.71 78.1387 18.9521C78.0449 19.1943 77.998 19.46 77.998 19.749C77.998 20.0381 78.0645 20.2998 78.1973 20.5342C78.3301 20.7607 78.5215 20.9404 78.7715 21.0732C79.0215 21.1982 79.3145 21.2607 79.6504 21.2607C80.1582 21.2607 80.5996 21.1592 80.9746 20.9561C81.3496 20.7529 81.6387 20.5029 81.8418 20.2061C82.0527 19.9092 82.1621 19.6279 82.1699 19.3623L83.0605 20.792C82.9355 21.1123 82.7637 21.4443 82.5449 21.7881C82.334 22.1318 82.0645 22.4561 81.7363 22.7607C81.4082 23.0576 81.0137 23.3037 80.5527 23.499C80.0918 23.6865 79.5449 23.7803 78.9121 23.7803C78.1074 23.7803 77.377 23.6201 76.7207 23.2998C76.0723 22.9717 75.5566 22.5225 75.1738 21.9521C74.7988 21.374 74.6113 20.7178 74.6113 19.9834C74.6113 19.3193 74.7363 18.7295 74.9863 18.2139C75.2363 17.6982 75.6035 17.2646 76.0879 16.9131C76.5801 16.5537 77.1934 16.2842 77.9277 16.1045C78.6621 15.917 79.5137 15.8232 80.4824 15.8232H82.4395ZM91.3691 13.6318V23.5459H87.9941V10.8662H91.1699L91.3691 13.6318ZM95.1895 10.7842L95.1309 13.9131C94.9668 13.8896 94.7676 13.8701 94.5332 13.8545C94.3066 13.8311 94.0996 13.8193 93.9121 13.8193C93.4355 13.8193 93.0215 13.8818 92.6699 14.0068C92.3262 14.124 92.0371 14.2998 91.8027 14.5342C91.5762 14.7686 91.4043 15.0537 91.2871 15.3896C91.1777 15.7256 91.1152 16.1084 91.0996 16.5381L90.4199 16.3271C90.4199 15.5068 90.502 14.7529 90.666 14.0654C90.8301 13.3701 91.0684 12.7646 91.3809 12.249C91.7012 11.7334 92.0918 11.335 92.5527 11.0537C93.0137 10.7725 93.541 10.6318 94.1348 10.6318C94.3223 10.6318 94.5137 10.6475 94.709 10.6787C94.9043 10.7021 95.0645 10.7373 95.1895 10.7842ZM103.58 10.8662V13.2568H96.1973V10.8662H103.58ZM98.0254 7.7373H101.4V19.7256C101.4 20.0928 101.447 20.374 101.541 20.5693C101.643 20.7646 101.791 20.9014 101.986 20.9795C102.182 21.0498 102.428 21.085 102.725 21.085C102.936 21.085 103.123 21.0771 103.287 21.0615C103.459 21.0381 103.604 21.0146 103.721 20.9912L103.732 23.4756C103.443 23.5693 103.131 23.6436 102.795 23.6982C102.459 23.7529 102.088 23.7803 101.682 23.7803C100.939 23.7803 100.291 23.6592 99.7363 23.417C99.1895 23.167 98.7676 22.7686 98.4707 22.2217C98.1738 21.6748 98.0254 20.9561 98.0254 20.0654V7.7373ZM109.229 6.4834V23.5459H105.713V6.4834H109.229ZM116.025 13.7725V16.5146H108.268V13.7725H116.025ZM116.846 6.4834V9.2373H108.268V6.4834H116.846ZM122.236 10.8662V23.5459H118.85V10.8662H122.236ZM118.639 7.56152C118.639 7.06934 118.811 6.66309 119.154 6.34277C119.498 6.02246 119.959 5.8623 120.537 5.8623C121.107 5.8623 121.564 6.02246 121.908 6.34277C122.26 6.66309 122.436 7.06934 122.436 7.56152C122.436 8.05371 122.26 8.45996 121.908 8.78027C121.564 9.10059 121.107 9.26074 120.537 9.26074C119.959 9.26074 119.498 9.10059 119.154 8.78027C118.811 8.45996 118.639 8.05371 118.639 7.56152ZM128.33 13.5732V23.5459H124.955V10.8662H128.119L128.33 13.5732ZM127.838 16.7607H126.924C126.924 15.8232 127.045 14.9795 127.287 14.2295C127.529 13.4717 127.869 12.8271 128.307 12.2959C128.744 11.7568 129.264 11.3467 129.865 11.0654C130.475 10.7764 131.154 10.6318 131.904 10.6318C132.498 10.6318 133.041 10.7178 133.533 10.8896C134.025 11.0615 134.447 11.335 134.799 11.71C135.158 12.085 135.432 12.5811 135.619 13.1982C135.814 13.8154 135.912 14.5693 135.912 15.46V23.5459H132.514V15.4482C132.514 14.8857 132.436 14.4482 132.279 14.1357C132.123 13.8232 131.893 13.6045 131.588 13.4795C131.291 13.3467 130.924 13.2803 130.486 13.2803C130.033 13.2803 129.639 13.3701 129.303 13.5498C128.975 13.7295 128.701 13.9795 128.482 14.2998C128.271 14.6123 128.111 14.9795 128.002 15.4014C127.893 15.8232 127.838 16.2764 127.838 16.7607ZM145.967 20.7803V5.5459H149.365V23.5459H146.307L145.967 20.7803ZM137.951 17.3584V17.1123C137.951 16.1436 138.061 15.2646 138.279 14.4756C138.498 13.6787 138.818 12.9951 139.24 12.4248C139.662 11.8545 140.182 11.4131 140.799 11.1006C141.416 10.7881 142.119 10.6318 142.908 10.6318C143.65 10.6318 144.299 10.7881 144.854 11.1006C145.416 11.4131 145.893 11.8584 146.283 12.4365C146.682 13.0068 147.002 13.6826 147.244 14.4639C147.486 15.2373 147.662 16.085 147.771 17.0068V17.5459C147.662 18.4287 147.486 19.249 147.244 20.0068C147.002 20.7646 146.682 21.4287 146.283 21.999C145.893 22.5615 145.416 22.999 144.854 23.3115C144.291 23.624 143.635 23.7803 142.885 23.7803C142.096 23.7803 141.393 23.6201 140.775 23.2998C140.166 22.9795 139.65 22.5303 139.229 21.9521C138.814 21.374 138.498 20.6943 138.279 19.9131C138.061 19.1318 137.951 18.2803 137.951 17.3584ZM141.326 17.1123V17.3584C141.326 17.8818 141.365 18.3701 141.443 18.8232C141.529 19.2764 141.666 19.6787 141.854 20.0303C142.049 20.374 142.299 20.6436 142.604 20.8389C142.916 21.0264 143.295 21.1201 143.74 21.1201C144.318 21.1201 144.795 20.9912 145.17 20.7334C145.545 20.4678 145.83 20.1045 146.025 19.6436C146.229 19.1826 146.346 18.6514 146.377 18.0498V16.5146C146.354 16.0225 146.283 15.5811 146.166 15.1904C146.057 14.792 145.893 14.4521 145.674 14.1709C145.463 13.8896 145.197 13.6709 144.877 13.5146C144.564 13.3584 144.193 13.2803 143.764 13.2803C143.326 13.2803 142.951 13.3818 142.639 13.585C142.326 13.7803 142.072 14.0498 141.877 14.3936C141.689 14.7373 141.549 15.1436 141.455 15.6123C141.369 16.0732 141.326 16.5732 141.326 17.1123ZM157.838 23.7803C156.854 23.7803 155.971 23.624 155.189 23.3115C154.408 22.9912 153.744 22.5498 153.197 21.9873C152.658 21.4248 152.244 20.7725 151.955 20.0303C151.666 19.2803 151.521 18.4834 151.521 17.6396V17.1709C151.521 16.21 151.658 15.3311 151.932 14.5342C152.205 13.7373 152.596 13.0459 153.104 12.46C153.619 11.874 154.244 11.4248 154.979 11.1123C155.713 10.792 156.541 10.6318 157.463 10.6318C158.361 10.6318 159.158 10.7803 159.854 11.0771C160.549 11.374 161.131 11.7959 161.6 12.3428C162.076 12.8896 162.436 13.5459 162.678 14.3115C162.92 15.0693 163.041 15.9131 163.041 16.8428V18.249H152.963V15.999H159.725V15.7412C159.725 15.2725 159.639 14.8545 159.467 14.4873C159.303 14.1123 159.053 13.8154 158.717 13.5967C158.381 13.3779 157.951 13.2686 157.428 13.2686C156.982 13.2686 156.6 13.3662 156.279 13.5615C155.959 13.7568 155.697 14.0303 155.494 14.3818C155.299 14.7334 155.15 15.1475 155.049 15.624C154.955 16.0928 154.908 16.6084 154.908 17.1709V17.6396C154.908 18.1475 154.979 18.6162 155.119 19.0459C155.268 19.4756 155.475 19.8467 155.74 20.1592C156.014 20.4717 156.342 20.7139 156.725 20.8857C157.115 21.0576 157.557 21.1436 158.049 21.1436C158.658 21.1436 159.225 21.0264 159.748 20.792C160.279 20.5498 160.736 20.1865 161.119 19.7021L162.76 21.4834C162.494 21.8662 162.131 22.2334 161.67 22.585C161.217 22.9365 160.67 23.2256 160.029 23.4521C159.389 23.6709 158.658 23.7803 157.838 23.7803ZM168.338 13.6318V23.5459H164.963V10.8662H168.139L168.338 13.6318ZM172.158 10.7842L172.1 13.9131C171.936 13.8896 171.736 13.8701 171.502 13.8545C171.275 13.8311 171.068 13.8193 170.881 13.8193C170.404 13.8193 169.99 13.8818 169.639 14.0068C169.295 14.124 169.006 14.2998 168.771 14.5342C168.545 14.7686 168.373 15.0537 168.256 15.3896C168.146 15.7256 168.084 16.1084 168.068 16.5381L167.389 16.3271C167.389 15.5068 167.471 14.7529 167.635 14.0654C167.799 13.3701 168.037 12.7646 168.35 12.249C168.67 11.7334 169.061 11.335 169.521 11.0537C169.982 10.7725 170.51 10.6318 171.104 10.6318C171.291 10.6318 171.482 10.6475 171.678 10.6787C171.873 10.7021 172.033 10.7373 172.158 10.7842Z" fill="white"/>
<path d="M12.9917 29.6765L0.376808 5.00669C0.0884418 4.44232 -0.0384465 3.80927 0.0101198 3.17735C0.0586861 2.54544 0.280833 1.93922 0.652045 1.42554C1.02327 0.911865 1.52914 0.510683 2.11388 0.26624C2.69862 0.0217973 3.33951 -0.0564052 3.96587 0.040262L27.3443 3.64841C27.8825 3.73149 28.3933 3.94114 28.8349 4.26012C29.2762 4.57912 29.6356 4.99832 29.8835 5.48328C30.1313 5.96824 30.2606 6.5051 30.2605 7.04972C30.2603 7.59433 30.1309 8.13117 29.883 8.61604L19.1135 29.6777C18.8243 30.2405 18.3855 30.7127 17.8454 31.0422C17.3053 31.3719 16.6849 31.5461 16.0522 31.546C15.4195 31.5459 14.7991 31.3714 14.2591 31.0416C13.7191 30.7117 13.2806 30.2394 12.9917 29.6765Z" fill="white"/>
</svg>
